<?xml version="1.0" standalone="no"?>
<!DOCTYPE svg PUBLIC "-//W3C//DTD SVG 20010904//EN"
 "http://www.w3.org/TR/2001/REC-SVG-20010904/DTD/svg10.dtd">
<svg version="1.0" xmlns="http://www.w3.org/2000/svg"
 width="754.000000pt" height="754.000000pt" viewBox="0 0 754.000000 754.000000"
 preserveAspectRatio="xMidYMid meet">
<metadata>
Created by potrace 1.11, written by Peter Selinger 2001-2013
</metadata>
<g transform="translate(0.000000,754.000000) scale(0.100000,-0.100000)"
fill="#000000" stroke="none">
<path d="M433 7422 c-84 -1 -153 -4 -153 -7 0 -4 148 -264 263 -460 38 -66 81
-140 95 -165 13 -25 39 -70 57 -100 36 -60 220 -379 534 -925 111 -192 206
-357 211 -365 5 -8 59 -102 121 -208 l112 -194 -16 -31 c-9 -18 -29 -53 -44
-79 -15 -26 -57 -98 -93 -160 -35 -62 -70 -122 -77 -133 -7 -11 -16 -27 -20
-35 -4 -8 -35 -62 -68 -118 -33 -57 -69 -120 -81 -140 -66 -117 -331 -576
-359 -622 -18 -30 -42 -72 -54 -93 -12 -21 -56 -98 -98 -170 -42 -73 -83 -145
-93 -162 -34 -60 -215 -374 -302 -523 -50 -86 -87 -160 -84 -168 5 -13 103
-184 266 -464 21 -36 97 -168 170 -295 72 -126 149 -259 170 -295 21 -36 87
-150 148 -255 60 -104 119 -206 130 -225 12 -19 27 -46 35 -60 18 -34 246
-428 268 -465 11 -16 22 -37 26 -45 4 -8 33 -59 65 -113 32 -54 58 -102 58
-107 0 -5 3 -10 8 -12 4 -2 16 -20 26 -40 10 -21 22 -35 27 -33 6 5 41 63 116
195 11 19 87 150 168 290 81 140 156 271 167 290 11 19 41 71 67 115 25 44 51
88 56 97 103 181 190 330 232 401 29 48 53 89 53 91 0 2 45 82 101 177 56 96
173 300 262 454 88 154 166 286 172 294 11 11 246 13 1406 13 l1394 0 105 181
c58 99 119 205 135 234 17 29 68 119 115 200 47 80 97 167 111 192 15 25 67
116 116 201 49 85 133 229 185 320 52 91 121 210 153 265 32 55 66 115 77 134
11 18 102 177 204 351 101 175 186 325 190 333 4 13 -107 15 -903 15 -499 0
-1129 1 -1398 1 l-491 1 -51 88 c-28 48 -60 103 -71 122 -11 19 -61 107 -112
195 -132 228 -131 226 -155 270 -13 22 -80 139 -150 260 -70 121 -136 235
-147 254 -11 19 -80 138 -153 265 -73 127 -226 393 -340 591 -114 198 -211
364 -216 369 -7 8 -2256 15 -2646 8z"/>
<path d="M5750 898 c0 -7 -3 -23 -6 -36 -4 -13 -3 -22 2 -21 28 5 43 -2 37
-18 -5 -13 -2 -15 11 -10 16 6 17 2 12 -35 -3 -24 -8 -54 -11 -68 -3 -14 -8
-41 -11 -60 -2 -19 -9 -55 -14 -80 -8 -39 -31 -173 -46 -265 -2 -16 -7 -41 -9
-55 -13 -63 -13 -70 -4 -71 5 -1 15 -2 22 -3 6 -1 11 -7 10 -14 -2 -7 3 -12
10 -13 14 -1 61 2 64 5 1 1 11 55 22 121 12 66 23 131 26 145 3 14 7 39 10 55
2 17 14 82 25 145 40 217 43 257 22 252 -8 -1 -16 6 -19 16 -4 17 -15 20 -79
21 -54 1 -74 -2 -74 -11z"/>
<path d="M6088 862 c-22 -3 -29 -10 -34 -37 -6 -35 1 -59 16 -50 5 3 13 -2 18
-11 5 -9 24 -17 41 -19 26 -2 34 2 42 22 15 40 11 63 -11 63 -11 0 -20 6 -20
14 0 17 -16 23 -52 18z"/>
<path d="M2365 815 c-3 -11 -7 -31 -9 -45 -2 -14 -9 -52 -15 -85 -6 -33 -13
-75 -16 -94 -3 -19 -8 -37 -10 -41 -2 -3 -7 -38 -10 -77 l-7 -72 76 -108 c80
-115 111 -144 158 -149 41 -5 51 2 173 118 113 109 121 119 130 164 2 16 7 40
10 54 3 14 12 66 21 115 8 50 17 101 20 115 15 80 14 90 -6 90 -11 0 -20 7
-20 15 0 11 -11 15 -40 15 -22 0 -40 -4 -40 -9 0 -4 -11 -66 -24 -137 -14 -71
-27 -149 -31 -174 -4 -24 -13 -56 -20 -70 -13 -26 -170 -180 -183 -180 -4 0
-29 32 -56 71 -54 79 -53 71 -16 264 5 28 12 67 16 89 8 53 12 74 19 96 4 14
0 19 -17 22 -13 2 -22 9 -21 15 1 6 -15 13 -38 15 -33 3 -40 0 -44 -17z"/>
<path d="M3594 667 c-25 -16 -52 -40 -60 -53 -13 -19 -51 -195 -67 -309 -6
-42 16 -79 73 -124 l49 -39 124 2 c114 2 126 4 170 29 44 26 46 29 35 53 -7
14 -17 23 -25 20 -7 -3 -13 -2 -13 2 0 4 -4 13 -8 20 -7 10 -18 8 -53 -7 -62
-29 -213 -30 -228 -3 -6 10 -8 27 -6 38 2 10 6 31 10 47 l5 27 173 0 c94 0
177 4 183 8 7 4 15 24 18 44 3 21 10 55 14 76 12 50 7 88 -12 108 -9 8 -19 20
-23 27 -5 7 -24 23 -43 37 -32 23 -44 25 -153 26 -115 1 -118 1 -163 -29z
m274 -76 c10 -6 12 -21 7 -57 -3 -27 -10 -53 -14 -57 -5 -5 -60 -9 -122 -9
l-114 -1 2 39 c2 29 11 45 35 66 30 26 40 28 113 28 44 0 86 -4 93 -9z"/>
<path d="M4183 684 c-47 -23 -101 -85 -108 -124 -13 -75 -9 -112 16 -132 54
-43 69 -49 135 -54 38 -3 78 -7 89 -9 11 -2 28 -4 38 -4 30 -2 21 -49 -17 -87
-34 -34 -35 -34 -122 -34 -66 0 -100 5 -131 20 l-43 19 -15 -22 c-8 -12 -15
-24 -15 -28 0 -3 26 -23 57 -45 l57 -39 121 0 121 0 47 39 c35 29 51 50 61 85
22 74 15 117 -25 151 -37 31 -56 36 -164 46 -98 9 -98 9 -103 22 -6 20 28 77
56 94 39 23 156 21 204 -3 46 -23 43 -24 61 5 16 24 15 25 -40 67 l-56 42 -97
3 c-69 1 -105 -2 -127 -12z"/>
<path d="M5310 693 c-8 -2 -34 -14 -58 -26 -48 -25 -54 -55 -14 -72 12 -5 22
-15 22 -22 0 -17 10 -16 61 6 48 21 184 27 206 9 8 -6 11 -24 7 -47 -8 -59
-10 -62 -39 -51 -15 6 -76 10 -137 10 l-111 0 -48 -37 c-49 -37 -64 -61 -75
-123 -14 -75 2 -112 73 -166 37 -28 42 -29 158 -30 95 -1 130 2 169 17 62 23
73 34 80 84 3 22 16 99 29 171 29 160 25 179 -49 240 l-51 41 -104 0 c-58 0
-111 -2 -119 -4z m196 -296 c2 -2 -2 -32 -9 -67 -12 -59 -15 -64 -47 -76 -19
-7 -72 -13 -117 -13 -94 -1 -104 7 -93 70 9 49 51 87 99 91 46 4 162 1 167 -5z"/>
<path d="M6794 667 c-25 -16 -52 -39 -59 -51 -14 -20 -37 -115 -49 -201 -3
-22 -9 -64 -14 -92 -11 -64 4 -94 72 -146 l46 -35 122 2 c121 2 157 10 204 48
16 12 -6 60 -23 53 -7 -2 -13 -1 -13 3 0 4 -4 13 -8 20 -7 10 -18 8 -53 -7
-62 -29 -213 -30 -228 -3 -6 10 -8 27 -6 38 2 10 6 31 10 47 l5 27 179 0 179
0 11 33 c5 17 13 52 17 77 3 25 8 54 10 66 5 28 -40 94 -84 124 -34 22 -48 25
-155 26 -115 1 -118 1 -163 -29z m281 -86 c5 -17 1 -65 -10 -101 -4 -12 -26
-15 -122 -14 l-118 2 2 38 c2 29 11 45 35 66 31 26 39 28 120 28 76 0 87 -2
93 -19z"/>
<path d="M2966 673 c-2 -10 -12 -56 -20 -103 -8 -47 -18 -98 -21 -115 -3 -16
-8 -48 -11 -70 -3 -22 -9 -57 -14 -77 -9 -44 15 -87 76 -133 37 -28 44 -30
154 -32 96 -2 125 1 173 19 31 11 59 24 62 28 2 3 13 58 24 121 34 195 50 283
57 317 6 28 4 32 -15 32 -12 0 -21 6 -21 15 0 11 -11 15 -39 15 -39 0 -39 0
-46 -47 -10 -77 -15 -107 -20 -123 -2 -8 -7 -37 -11 -65 -3 -27 -8 -52 -9 -55
-2 -3 -6 -26 -10 -50 -13 -95 -23 -102 -150 -106 -68 -3 -93 0 -101 11 -10 13
-6 50 20 190 3 17 9 50 12 75 3 25 8 47 9 50 2 3 6 24 10 48 5 38 4 42 -15 42
-11 0 -20 7 -20 15 0 23 -67 20 -74 -2z"/>
<path d="M4620 683 c0 -10 -47 -282 -54 -315 -18 -81 -17 -100 11 -137 15 -20
31 -38 36 -40 5 -2 19 -13 30 -24 19 -19 35 -22 137 -24 118 -2 195 12 231 44
10 8 20 33 23 57 9 55 14 89 27 156 6 30 12 66 14 80 2 14 11 60 18 103 l14
77 -25 0 c-17 0 -23 4 -18 15 4 12 -3 15 -33 15 l-38 0 -21 -112 c-12 -62 -23
-124 -25 -138 -26 -158 -30 -172 -56 -183 -14 -5 -67 -11 -118 -13 -74 -2 -92
0 -97 13 -3 8 3 67 15 131 11 65 23 133 26 152 3 19 8 54 13 78 7 40 6 42 -16
42 -17 0 -22 4 -18 15 5 12 -3 15 -35 15 -23 0 -41 -3 -41 -7z"/>
<path d="M5959 670 c-1 -11 -2 -26 -3 -32 -1 -7 8 -13 19 -13 11 0 19 -6 18
-12 -2 -7 4 -13 13 -13 17 0 16 -16 -2 -116 -40 -217 -51 -300 -41 -306 6 -4
14 -5 18 -2 4 2 9 -4 11 -14 4 -14 13 -17 40 -14 l34 4 33 186 c18 103 35 196
37 207 2 11 7 41 10 68 6 43 4 47 -15 47 -12 0 -21 6 -21 15 0 12 -15 15 -75
15 -68 0 -75 -2 -76 -20z"/>
<path d="M6254 658 c1 -26 5 -32 19 -30 11 2 17 -4 17 -15 0 -16 10 -18 100
-16 55 1 100 -1 100 -4 0 -3 -24 -32 -52 -63 -147 -157 -268 -298 -268 -310 0
-5 -3 -15 -6 -24 -5 -12 0 -16 20 -16 18 0 24 -4 20 -15 -4 -9 0 -15 7 -16 34
-2 372 0 374 3 2 2 5 14 7 28 2 20 -2 26 -20 28 -15 2 -22 9 -18 17 4 12 -16
15 -109 17 l-113 3 51 56 c79 86 189 208 236 262 46 54 55 97 20 97 -15 0 -19
5 -15 15 5 13 -20 15 -183 15 l-188 0 1 -32z"/>
</g>
</svg>
